<svg xmlns="http://www.w3.org/2000/svg" xmlns:xlink="http://www.w3.org/1999/xlink" xmlns:lucid="lucid" width="520" height="336"><g transform="translate(0 0)" lucid:page-tab-id="0_0"><path d="M0 0h520v336H0z" fill="#fff"/><path d="M.37 41.66H520v220H.37z" stroke="#a3d977" stroke-width="2" fill="#a3d977"/><path d="M0 0h220.6v40H0z" stroke="#000" stroke-opacity="0" stroke-width="2" fill="#fff" fill-opacity="0"/><use xlink:href="#a" transform="matrix(1,0,0,1,5,5) translate(53.65 18.15)"/><use xlink:href="#b" transform="matrix(1,0,0,1,5,5) translate(122.4 18.15)"/><path d="M180.83 8.4h307.33V30.2H180.83z" fill="#fff" fill-opacity="0"/><path d="M186.7 18.06l.62 5.1c1.33-1.8 2.1-3.1 2.57-4 .43-.8.6-1.23.6-1.63 0-.45-1.13-.67-1.13-1.5 0-.48.4-.87 1.03-.87.7 0 1.24.5 1.24 1.35 0 1.7-3.53 6.94-4.45 8.1-1.6 2-3 4.13-4.5 4.13-.8 0-1.2-.68-1.2-1.2 0-.65.57-.9.86-.9.93 0 .9.68 1.24.68.37 0 1.6-1.34 2.18-2.2l-.83-6.85c-.1-.98-.3-2.3-1.53-2.3-.23 0-.58.08-.78.1l-.04-.35 3.26-.54c.5.72.66 1.28.85 2.9M211.57 17.77h-12.83v-1.44h12.83v1.44m0 4.36h-12.83V20.7h12.83v1.43M227.17 15.14l-.53 3.18h-.32c0-1.4-.8-2.62-2-2.62-.55 0-1.12.37-1.12 1.27 0 1.2 2.92 3.2 2.92 5.27 0 1.35-1.04 2.72-2.94 2.72-.74 0-2.13-.43-2.4-.43-.2 0-.4.08-.65.45h-.37l.54-3.4h.35c0 1.38.9 2.84 2.27 2.84 1.28 0 1.6-1.1 1.6-1.94 0-1.8-2.84-2.88-2.84-5 0-1.73 1.28-2.34 2.48-2.34.94 0 1.37.43 2 .43.24 0 .48-.22.66-.43h.35M234.32 28.02h-4.25v-.23c1.14-.07 1.46-.4 1.46-1.24v-6.9c0-.54-.14-.77-.46-.77-.15 0-.42.07-.7.18l-.4.15V19l2.75-1.4.14.06v9.2c0 .66.3.93 1.46.93V28M247.43 19.23c0 .7-.6 1.3-1.3 1.3-.7 0-1.32-.64-1.32-1.3 0-.65.62-1.3 1.34-1.3.7 0 1.3.6 1.3 1.3M261.98 22.33l.26.28c-1.1 1.32-2.46 2.38-4.3 2.38-2.13 0-3-1.7-3-3.37 0-3.04 2.64-6.46 5.73-6.46 1.1 0 2.1.58 2.1 1.65 0 .82-.34 1.52-1.16 1.52-.56 0-.82-.46-.82-.83 0-.53.63-.8.63-1.27 0-.27-.2-.46-.73-.46-2.6 0-3.83 3.9-3.83 5.64 0 1.9 1.06 2.38 2.04 2.38 1.33 0 2.33-.7 3.1-1.45M269.18 28.02h-4.25v-.23c1.14-.07 1.46-.4 1.46-1.24v-6.9c0-.54-.15-.77-.47-.77-.16 0-.42.07-.7.18l-.4.15V19l2.75-1.4.14.06v9.2c0 .66.3.93 1.46.93V28M291.7 19.95h-5.67v5.7h-1.44v-5.7h-5.7V18.5h5.7v-5.67h1.43v5.68h5.68v1.45M301.04 18.2l2.26 1.36c1.4.85 1.92 1.44 1.92 2.68 0 1.46-1.4 2.72-3.05 2.72-.46 0-1.1-.02-1.6-.2-.5-.17-.75-.2-1-.2-.26 0-.4.05-.52.27h-.28V21.4h.35c.46 2.12 1.26 3.08 2.77 3.08 1.1 0 1.8-.72 1.8-1.6 0-.7-.44-1.25-1.16-1.64l-1.18-.66c-1.8-1-2.6-2.04-2.6-3.16 0-1.72 1.2-2.68 3-2.68.52 0 1 .03 1.45.24.25.1.47.18.62.18.1 0 .18-.02.35-.22h.24l.12 2.96h-.33c-.5-1.96-1.16-2.68-2.47-2.68-.93 0-1.63.46-1.63 1.5 0 .46.33 1.1.94 1.47M310.03 10.98c0 .63-.48 1.1-1.13 1.1-.6 0-1.1-.47-1.1-1.1 0-.6.5-1.1 1.12-1.1.63 0 1.1.5 1.1 1.1m1.6 13.76h-5.16v-.32c1.5-.1 1.72-.3 1.72-1.94v-4.95c0-1.02-.17-1.37-.72-1.37-.2 0-.52 0-.9.1v-.34l3.36-1.2.1.1v7.64c0 1.6.16 1.85 1.6 1.96v.32M322.75 24.74h-4.53l.02-.32c1.1-.1 1.36-.53 1.36-1.96v-4.34c0-1.55-.53-2.2-1.6-2.2-.7 0-1.24.26-2.24 1.24v6c0 .86.3 1.17 1.42 1.26v.32h-4.6v-.32c1.1-.1 1.35-.44 1.35-1.72v-5.3c0-1.07-.15-1.4-.76-1.4-.24 0-.48 0-.63.07v-.37c1.2-.35 1.9-.6 2.98-.98l.18.07v1.7h.02c1.13-1.3 2.13-1.78 3.13-1.78 1.66 0 2.58 1.2 2.58 3.36v4.8c0 1.2.26 1.43 1.32 1.54v.32M329.7 28.25l-.26.35c-3.44-1.96-5.3-5.64-5.3-9.35 0-4.03 1.88-7.16 5.37-9.23l.2.35c-3.02 2.6-3.7 4.6-3.7 8.82 0 4.04.65 6.5 3.7 9.05M338.85 15.14l-.52 3.18H338c0-1.4-.78-2.62-2-2.62-.55 0-1.1.37-1.1 1.27 0 1.2 2.9 3.2 2.9 5.27 0 1.35-1.04 2.72-2.93 2.72-.74 0-2.14-.43-2.4-.43-.2 0-.4.08-.65.45h-.37l.54-3.4h.34c0 1.38.9 2.84 2.26 2.84 1.3 0 1.6-1.1 1.6-1.94 0-1.8-2.84-2.88-2.84-5 0-1.73 1.3-2.34 2.5-2.34.92 0 1.36.43 2 .43.23 0 .47-.22.64-.43h.35M347.24 25.9l-.84 2.12h-6.02v-.18l2.74-2.9c1.45-1.54 2-2.7 2-4.02 0-1.4-.83-2.17-2.13-2.17-1.12 0-1.66.5-2.28 2l-.32-.07c.32-1.8 1.3-3.07 3.2-3.07 1.74 0 2.85 1.2 2.85 2.72 0 1.22-.6 2.38-1.97 3.82l-2.54 2.7h3.6c.65 0 .97-.16 1.48-1.02M368.2 19.95h-12.14V18.5h12.14v1.45M382.35 22.33l.27.28c-1.1 1.32-2.47 2.38-4.32 2.38-2.1 0-2.98-1.7-2.98-3.37 0-3.04 2.63-6.46 5.73-6.46 1.1 0 2.1.58 2.1 1.65 0 .82-.34 1.52-1.17 1.52-.56 0-.82-.46-.82-.83 0-.53.63-.8.63-1.27 0-.27-.23-.46-.75-.46-2.6 0-3.84 3.9-3.84 5.64 0 1.9 1.08 2.38 2.06 2.38 1.33 0 2.33-.7 3.1-1.45M390.8 25.9l-.84 2.12h-6.03v-.18l2.75-2.9c1.44-1.54 2-2.7 2-4.02 0-1.4-.83-2.17-2.14-2.17-1.1 0-1.65.5-2.27 2l-.32-.07c.32-1.8 1.3-3.07 3.2-3.07 1.74 0 2.85 1.2 2.85 2.72 0 1.22-.6 2.38-1.97 3.82l-2.54 2.7h3.6c.64 0 .96-.16 1.47-1.02M402.66 19.23c0 .7-.6 1.3-1.3 1.3-.7 0-1.32-.64-1.32-1.3 0-.65.6-1.3 1.33-1.3.7 0 1.3.6 1.3 1.3M415.1 23.07l.28.24c-.72 1.14-1.55 1.66-2.64 1.66-1.26 0-1.9-.94-1.9-2.77v-6.56h-1.17c-.06-.05-.1-.1-.1-.15 0-.15.15-.28.38-.43.57-.33 1.3-1.13 2.12-2.33.13-.2.3-.4.43-.6.1 0 .16.06.16.27v2.54h2.2v.7h-2.2v6.23c0 1.4.32 1.96 1.13 1.96.47 0 .82-.2 1.3-.76M425 23.3v.62c-.67.82-1.23 1.04-1.97 1.04-.8 0-1.3-.43-1.4-1.6h-.02c-1.15 1.32-2.2 1.6-3.15 1.6-1.35 0-2.3-.83-2.3-2.26 0-1.14.7-2 1.54-2.55.64-.44 1.45-.85 3.9-1.77V17.2c0-1.34-.7-1.95-1.7-1.95-.86 0-1.5.47-1.5 1.06 0 .4.12.47.12.93 0 .4-.44.9-1 .9-.46 0-.94-.42-.94-1 0-.58.35-1.27 1.1-1.75.62-.4 1.53-.66 2.5-.66 1.23 0 2.06.35 2.58.98.53.63.6 1.1.6 2.42v4.16c0 1 .3 1.44.7 1.44.34 0 .56-.1.93-.4m-3.4-1.34V18.9c-1.34.48-2.23.94-2.78 1.44-.52.48-.74 1-.74 1.68 0 1.15.65 1.68 1.5 1.68.44 0 .9-.1 1.27-.35.63-.44.76-.74.76-1.37M435.62 24.74h-4.53v-.32c1.1-.1 1.36-.53 1.36-1.96v-4.34c0-1.55-.53-2.2-1.6-2.2-.7 0-1.23.26-2.24 1.24v6c0 .86.3 1.17 1.42 1.26v.32h-4.6v-.32c1.1-.1 1.35-.44 1.35-1.72v-5.3c0-1.07-.16-1.4-.77-1.4-.24 0-.48 0-.63.07v-.37c1.2-.35 1.92-.6 2.98-.98l.18.07v1.7h.02c1.13-1.3 2.13-1.78 3.14-1.78 1.65 0 2.57 1.2 2.57 3.36v4.8c0 1.2.25 1.43 1.32 1.54v.32M446.55 24.74h-4.62v-.32c1.27-.13 1.48-.4 1.48-1.9v-4.3c0-1.54-.53-2.32-1.6-2.32-.87 0-1.52.37-2.44 1.37v5.25c0 1.5.22 1.77 1.48 1.9v.32h-4.7v-.32c1.26-.18 1.4-.37 1.4-1.9V12.26c0-.94-.18-1.1-1.12-1.1h-.26v-.34l.6-.17c1.23-.37 1.73-.52 2.5-.78l.1.06v6.62c1-1.3 1.92-1.83 3.2-1.83 1.8 0 2.68 1.18 2.68 3.47v4.32c0 1.5.14 1.68 1.3 1.9v.32M453.48 28.25l-.26.35c-3.44-1.96-5.32-5.64-5.32-9.35 0-4.03 1.9-7.16 5.38-9.23l.2.35c-3.03 2.6-3.7 4.6-3.7 8.82 0 4.04.65 6.5 3.7 9.05M462.6 15.14l-.52 3.18h-.32c0-1.4-.8-2.62-2-2.62-.55 0-1.12.37-1.12 1.27 0 1.2 2.92 3.2 2.92 5.27 0 1.35-1.04 2.72-2.94 2.72-.74 0-2.13-.43-2.4-.43-.2 0-.4.08-.65.45h-.37l.54-3.4h.35c0 1.38.9 2.84 2.26 2.84 1.28 0 1.6-1.1 1.6-1.94 0-1.8-2.84-2.88-2.84-5 0-1.73 1.28-2.34 2.48-2.34.94 0 1.37.43 2 .43.24 0 .48-.22.66-.43h.35M464.63 20.17l-.25-.06c.45-1.46 1.42-2.5 3.02-2.5 1.43 0 2.4.86 2.4 2.12 0 .74-.4 1.5-1.43 2.13.68.3.96.48 1.28.8.43.5.68 1.2.68 2 0 .82-.26 1.57-.7 2.16-.75 1-2.2 1.44-3.58 1.44-1.13 0-1.73-.32-1.73-.88 0-.32.28-.55.63-.55.26 0 .5.1.94.4.56.4.9.5 1.32.5 1.14 0 2-1.06 2-2.37 0-1.17-.54-1.93-1.6-2.23-.34-.1-.7-.16-1.57-.16v-.2c.58-.2.98-.38 1.3-.57.74-.43 1.24-1.12 1.24-2.06 0-1.04-.66-1.56-1.68-1.56-.95 0-1.66.5-2.3 1.63M474.22 10.37l.26-.35c3.33 2 5.3 5.64 5.3 9.34 0 4.03-1.9 7.13-5.37 9.24l-.18-.35c3.1-2.55 3.7-4.6 3.7-8.82 0-4.08-.54-6.58-3.7-9.06M481.5 10.37l.28-.35c3.33 2 5.3 5.64 5.3 9.34 0 4.03-1.9 7.13-5.37 9.24l-.2-.35c3.1-2.55 3.72-4.6 3.72-8.82 0-4.08-.55-6.58-3.7-9.06"/><path d="M420 48.18h100v40H420z" stroke="#000" stroke-opacity="0" stroke-width="2" fill="#fff" fill-opacity="0"/><use xlink:href="#c" transform="matrix(1,0,0,1,425,53.17550531814973) translate(2.1499999999999986 18.15)"/><path d="M482 148.7c4.42 0 8 4.48 8 10s-3.58 10-8 10h-24c-4.42 0-8-4.48-8-10s3.58-10 8-10z" stroke="#000" stroke-width="2" fill="#fff"/><use xlink:href="#d" transform="matrix(1,0,0,1,451,149.69964357108842) translate(7.525 14.4)"/><path d="M5.08 300.14H520v32H5.08z" stroke="#000" stroke-opacity="0" stroke-width="2" fill="#fff" fill-opacity="0"/><use xlink:href="#e" transform="matrix(1,0,0,1,10.083098336476155,305.1386313802859) translate(58.20000000000002 15.775)"/><use xlink:href="#f" transform="matrix(1,0,0,1,10.083098336476155,305.1386313802859) translate(359.1 15.775)"/><path d="M500.84 96.02c0 5.52-4.48 10-10 10-5.53 0-10-4.48-10-10 0-5.53 4.47-10 10-10 5.52 0 10 4.47 10 10z" stroke="#000" stroke-width="2" fill="#fff"/><use xlink:href="#g" transform="matrix(1,0,0,1,481.83610880722745,87.01770685839854) translate(3.75 14.4)"/><path d="M460 96.02c0 5.52-4.48 10-10 10s-10-4.48-10-10c0-5.53 4.48-10 10-10s10 4.47 10 10z" stroke="#000" stroke-width="2" fill="#fff"/><use xlink:href="#h" transform="matrix(1,0,0,1,441,87.01770685839854) translate(4.185185185185184 13.866666666666669)"/><path d="M500.84 128.7c0 5.52-4.48 10-10 10-5.53 0-10-4.48-10-10s4.47-10 10-10c5.52 0 10 4.48 10 10z" stroke="#000" stroke-width="2" fill="#fff"/><use xlink:href="#i" transform="matrix(1,0,0,1,481.83610880722745,119.69964357108844) translate(3.9444444444444438 13.866666666666669)"/><path d="M460 128.7c0 5.52-4.48 10-10 10s-10-4.48-10-10 4.48-10 10-10 10 4.48 10 10z" stroke="#000" stroke-width="2" fill="#fff"/><use xlink:href="#j" transform="matrix(1,0,0,1,441,119.69964357108844) translate(4.257407407407407 13.866666666666669)"/><path d="M5.08 264.67h39.2v40H5.07z" stroke="#000" stroke-width="2" fill="#fff"/><path d="M15.5 277.85h18.36v13.64H15.5z" fill="#fff" fill-opacity="0"/><path d="M23.46 278.22l-.43 3.05h-.35c-.22-1.8-.87-2.52-1.94-2.52-.76 0-1.3.43-1.3 1.24 0 .58.34 1.2 1.2 2.2 1.08 1.27 1.47 2.12 1.47 2.97 0 1.8-1.32 2.92-3.12 2.92-.37 0-.7-.03-1.2-.23-.42-.17-.72-.2-.96-.2s-.48.12-.63.47h-.36l.43-3.47h.35c.3 2.07 1.05 2.97 2.18 2.97 1.02 0 1.66-.6 1.66-1.68 0-.7-.37-1.44-1.22-2.5-.94-1.18-1.38-2.16-1.38-2.86 0-1.44 1.03-2.35 2.64-2.35.37 0 .68.06 1.22.2.4.14.6.17.78.17.33 0 .48-.1.66-.4h.3M30.03 291.13h-4.25v-.23c1.14-.06 1.46-.38 1.46-1.23v-6.92c0-.52-.14-.75-.46-.75-.15 0-.42.08-.7.18l-.4.16v-.22l2.75-1.4.14.05v9.2c0 .66.3.93 1.46.93v.23"/><path d="M99.16 264.6h27.34v30.8H99.16z" fill="#fff"/><use xlink:href="#k" transform="matrix(1,0,0,1,104.16389119279809,269.6) translate(0 13.866666666666669)"/><path d="M60.26 264.67h39.2v40h-39.2z" stroke="#000" stroke-width="2" fill="#fff"/><path d="M70.67 277.85h18.37v13.64H70.67z" fill="#fff" fill-opacity="0"/><path d="M78.64 278.22l-.43 3.05h-.34c-.22-1.8-.87-2.52-1.94-2.52-.76 0-1.28.43-1.28 1.24 0 .58.32 1.2 1.17 2.2 1.1 1.27 1.5 2.12 1.5 2.97 0 1.8-1.34 2.92-3.14 2.92-.37 0-.7-.03-1.2-.23-.42-.17-.72-.2-.96-.2s-.48.12-.63.47h-.35l.44-3.47h.34c.3 2.07 1.05 2.97 2.18 2.97 1.03 0 1.66-.6 1.66-1.68 0-.7-.37-1.44-1.22-2.5-.94-1.18-1.37-2.16-1.37-2.86 0-1.44 1.02-2.35 2.63-2.35.37 0 .68.06 1.22.2.42.14.6.17.8.17.3 0 .46-.1.64-.4h.3M86.44 289.02l-.83 2.1h-6v-.17l2.73-2.9c1.45-1.54 2-2.7 2-4.02 0-1.4-.83-2.17-2.14-2.17-1.12 0-1.66.5-2.27 2l-.33-.07c.33-1.82 1.3-3.08 3.2-3.08 1.75 0 2.86 1.2 2.86 2.7 0 1.23-.6 2.38-1.97 3.83l-2.55 2.7h3.6c.65 0 .97-.16 1.48-1.02"/><path d="M133.52 264.67h39.2v40h-39.2z" stroke="#000" stroke-width="2" fill="#fff"/><path d="M143.93 277.85h18.37v13.77h-18.37z" fill="#fff" fill-opacity="0"/><path d="M151.9 278.22l-.43 3.05h-.35c-.22-1.8-.87-2.52-1.94-2.52-.76 0-1.28.43-1.28 1.24 0 .58.32 1.2 1.17 2.2 1.1 1.27 1.48 2.12 1.48 2.97 0 1.8-1.33 2.92-3.13 2.92-.37 0-.7-.03-1.2-.23-.42-.17-.72-.2-.96-.2s-.48.12-.63.47h-.35l.43-3.47h.36c.3 2.07 1.05 2.97 2.18 2.97 1.03 0 1.66-.6 1.66-1.68 0-.7-.37-1.44-1.22-2.5-.94-1.18-1.37-2.16-1.37-2.86 0-1.44 1.03-2.35 2.64-2.35.37 0 .68.06 1.22.2.4.14.6.17.8.17.3 0 .46-.1.64-.4h.3M159.5 289.33l.2.2c-1.04 1.43-1.43 1.74-2.15 1.74-.4 0-.73-.24-.73-.83 0-.15.03-.35.25-1.15l.68-2.5c.12-.5.2-1.04.2-1.23 0-.27-.13-.44-.36-.44-.62 0-1.32.75-2.3 2.18-.68 1.05-.8 1.4-1.53 3.83h-1.15l1.48-5.4c0-.06.03-.16.03-.25 0-.3-.22-.4-1-.42v-.24c1.24-.25 1.68-.3 2.5-.48l.05.03-1.03 3.36c1.54-2.46 2.57-3.4 3.56-3.4.67 0 1 .4 1 .95 0 .28-.05.6-.14.92l-.87 3.13c-.16.56-.22.82-.22.94 0 .14.06.28.25.28.2 0 .5-.25.93-.82l.33-.4"/><path d="M300.3 264.67h39.17v40H300.3z" stroke="#000" stroke-width="2" fill="#fff"/><path d="M310.7 277.85h19.56v13.6H310.7z" fill="#fff" fill-opacity="0"/><path d="M318.32 285.5l.35.22c-1.33 1.68-2.5 2.35-4.12 2.35-2.03 0-3.2-1.13-3.2-3.35 0-2.03 1.13-3.93 2.68-5.17 1.06-.85 2.3-1.33 3.63-1.33s2.3.75 2.3 1.77c0 .58-.5 1.03-1.05 1.03-.6 0-.84-.43-.84-.87 0-.4.32-.63.32-1.04 0-.26-.3-.44-.8-.44-.87 0-1.75.4-2.38 1.05-1.22 1.28-1.98 3.13-1.98 5.07 0 1.57.7 2.5 1.94 2.5 1.15 0 1.98-.56 3.16-1.8M326.44 291.1h-4.26v-.22c1.14-.06 1.47-.38 1.47-1.23v-6.92c0-.52-.14-.75-.46-.75-.17 0-.43.07-.7.18l-.42.16v-.22l2.75-1.4.14.05v9.2c0 .65.3.93 1.47.93v.23"/><path d="M360.3 264.67h39.17v40H360.3z" stroke="#000" stroke-width="2" fill="#fff"/><path d="M370.7 277.85h19.56v13.6H370.7z" fill="#fff" fill-opacity="0"/><path d="M378.32 285.5l.35.22c-1.33 1.68-2.5 2.35-4.12 2.35-2.03 0-3.2-1.13-3.2-3.35 0-2.03 1.13-3.93 2.68-5.17 1.06-.85 2.3-1.33 3.63-1.33s2.3.75 2.3 1.77c0 .58-.5 1.03-1.05 1.03-.6 0-.84-.43-.84-.87 0-.4.32-.63.32-1.04 0-.26-.3-.44-.8-.44-.87 0-1.75.4-2.38 1.05-1.22 1.28-1.98 3.13-1.98 5.07 0 1.57.7 2.5 1.94 2.5 1.15 0 1.98-.56 3.16-1.8M387.67 289l-.83 2.1h-6.03v-.17l2.76-2.9c1.44-1.54 2-2.7 2-4.02 0-1.4-.83-2.16-2.14-2.16-1.1 0-1.65.5-2.27 2l-.32-.08c.32-1.8 1.3-3.06 3.2-3.06 1.74 0 2.85 1.2 2.85 2.7 0 1.23-.6 2.38-1.97 3.83l-2.53 2.7h3.6c.65 0 .97-.16 1.48-1.02"/><path d="M413.22 264.67h27.33v30.8h-27.33z" fill="#fff"/><use xlink:href="#k" transform="matrix(1,0,0,1,418.2162552478465,269.669315690143) translate(0 13.866666666666669)"/><path d="M370.7 145.02h39.18v40h-39.2z" stroke="#000" stroke-width="2" fill="#fff"/><path d="M384.84 159.72h10.8v17.76h-10.8z" fill="#fff" fill-opacity="0"/><path d="M390.72 165.3l.6 5.13c1.34-1.8 2.1-3.1 2.58-4 .43-.8.6-1.25.6-1.64 0-.47-1.13-.68-1.13-1.5 0-.5.4-.88 1.03-.88.7 0 1.24.5 1.24 1.35 0 1.7-3.53 6.92-4.44 8.08-1.6 2-3 4.14-4.5 4.14-.8 0-1.2-.7-1.2-1.2 0-.66.58-.9.86-.9.94 0 .9.67 1.24.67.37 0 1.6-1.35 2.18-2.22l-.83-6.84c-.1-.97-.3-2.28-1.52-2.28-.24 0-.6.07-.8.1l-.03-.36 3.27-.54c.5.72.65 1.28.85 2.9"/><path d="M131.22 51.18h39.2v40h-39.2z" stroke="#000" stroke-width="2" fill="#fff"/><path d="M141.63 64.37h19.48v17.76h-19.47z" fill="#fff" fill-opacity="0"/><path d="M150.12 67.04l-.52 3.18h-.33c0-1.4-.78-2.6-2-2.6-.55 0-1.1.36-1.1 1.25 0 1.2 2.9 3.2 2.9 5.27 0 1.35-1.04 2.72-2.93 2.72-.74 0-2.14-.43-2.4-.43-.2 0-.4.1-.65.46h-.38l.54-3.4h.35c0 1.36.9 2.82 2.28 2.82 1.28 0 1.6-1.1 1.6-1.94 0-1.8-2.85-2.88-2.85-5 0-1.73 1.3-2.34 2.5-2.34.92 0 1.36.43 2 .43.23 0 .47-.2.64-.43h.35M158.5 77.82l-.82 2.1h-6.03v-.18l2.74-2.9c1.44-1.53 2-2.7 2-4 0-1.42-.83-2.2-2.14-2.2-1.1 0-1.65.5-2.27 2.02l-.33-.08c.32-1.8 1.3-3.06 3.2-3.06 1.74 0 2.85 1.18 2.85 2.7 0 1.22-.6 2.38-1.97 3.83l-2.54 2.7h3.6c.66 0 .98-.16 1.5-1.03"/><path d="M341.2 165.02c0 5.52-4.8 10-10.7 10-5.88 0-10.67-4.48-10.67-10s4.8-10 10.68-10c5.9 0 10.7 4.48 10.7 10z" stroke="#000" stroke-width="2" fill="#fff"/><use xlink:href="#g" transform="matrix(1,0,0,1,320.83486768146656,156.01812594132053) translate(4.75 14.4)"/><path d="M308.03 200.48c0 5.52-4.48 10-10 10s-10-4.48-10-10c0-5.53 4.48-10 10-10s10 4.47 10 10z" stroke="#000" stroke-width="2" fill="#fff"/><use xlink:href="#i" transform="matrix(1,0,0,1,289.0288148151574,191.47587814323379) translate(3.9444444444444438 13.866666666666669)"/><path d="M272.37 94.4c4.42 0 8 4.5 8 10 0 5.53-3.58 10-8 10h-24c-4.42 0-8-4.47-8-10 0-5.5 3.58-10 8-10z" stroke="#000" stroke-width="2" fill="#fff"/><use xlink:href="#d" transform="matrix(1,0,0,1,241.37262488309284,95.41193672993154) translate(7.525 14.4)"/><path d="M239.37 204.1h39.2v38h-39.2z" stroke="#000" stroke-width="2" fill="#fff"/><path d="M249.78 216.3h18.37v13.62h-18.37z" fill="#fff" fill-opacity="0"/><path d="M257.75 216.66l-.43 3.05h-.35c-.22-1.8-.87-2.5-1.94-2.5-.76 0-1.28.42-1.28 1.23 0 .6.32 1.22 1.17 2.22 1.1 1.26 1.48 2.1 1.48 2.96 0 1.82-1.33 2.93-3.13 2.93-.37 0-.7-.02-1.2-.22-.42-.16-.72-.18-.96-.18-.23 0-.47.1-.62.45h-.35l.44-3.46h.34c.32 2.08 1.06 2.97 2.2 2.97 1.02 0 1.65-.6 1.65-1.67 0-.7-.37-1.44-1.22-2.5-.94-1.2-1.37-2.17-1.37-2.86 0-1.44 1.02-2.36 2.63-2.36.36 0 .67.07 1.2.22.43.13.62.15.8.15.32 0 .47-.08.65-.4h.3M264.32 229.57h-4.25v-.23c1.14-.06 1.46-.38 1.46-1.23v-6.9c0-.53-.13-.76-.46-.76-.15 0-.4.07-.7.18l-.4.16v-.22l2.75-1.4.14.05v9.2c0 .66.3.94 1.46.94v.23"/><path d="M80 108.5h39.2v40H80z" stroke="#000" stroke-width="2" fill="#fff"/><path d="M90.4 121.7H110v13.6H90.4z" fill="#fff" fill-opacity="0"/><path d="M98.03 129.33l.35.22c-1.33 1.68-2.48 2.35-4.12 2.35-2.02 0-3.2-1.13-3.2-3.35 0-2.03 1.13-3.92 2.68-5.16 1.07-.86 2.3-1.34 3.64-1.34 1.33 0 2.28.74 2.28 1.76 0 .6-.47 1.05-1.04 1.05-.6 0-.85-.44-.85-.87 0-.4.33-.64.33-1.05 0-.26-.3-.44-.8-.44-.88 0-1.75.4-2.38 1.06-1.22 1.3-2 3.14-2 5.08 0 1.56.7 2.48 1.95 2.48 1.16 0 1.98-.54 3.16-1.8M107.38 132.83l-.83 2.12h-6.02v-.2l2.74-2.9c1.45-1.53 2-2.7 2-4 0-1.4-.83-2.18-2.14-2.18-1.1 0-1.65.5-2.26 2l-.33-.07c.33-1.8 1.3-3.07 3.2-3.07 1.75 0 2.86 1.2 2.86 2.7 0 1.23-.6 2.4-1.98 3.83l-2.54 2.7h3.6c.65 0 .98-.15 1.5-1.02"/><path d="M205.04 104.9c0 5.52-4.47 10-10 10-5.52 0-10-4.48-10-10 0-5.53 4.48-10 10-10 5.53 0 10 4.47 10 10z" stroke="#000" stroke-width="2" fill="#fff"/><use xlink:href="#l" transform="matrix(1,0,0,1,186.04455712491608,95.89272054446572) translate(6.025 14.4)"/><path d="M4.8 160h39.18v40H4.8z" stroke="#000" stroke-width="2" fill="#fff"/><path d="M15.2 173.18h19.5v17.76H15.2z" fill="#fff" fill-opacity="0"/><path d="M23.7 175.85l-.52 3.2h-.33c0-1.4-.78-2.63-2-2.63-.55 0-1.12.37-1.12 1.26 0 1.2 2.92 3.2 2.92 5.28 0 1.35-1.04 2.72-2.94 2.72-.73 0-2.12-.44-2.38-.44-.2 0-.4.1-.66.46h-.37l.54-3.4h.35c0 1.38.88 2.83 2.25 2.83 1.3 0 1.6-1.08 1.6-1.93 0-1.8-2.84-2.88-2.84-5 0-1.74 1.3-2.35 2.5-2.35.93 0 1.37.44 2 .44.24 0 .48-.23.65-.45h.35M25.72 180.9l-.24-.07c.44-1.47 1.4-2.5 3-2.5 1.45 0 2.42.85 2.42 2.1 0 .75-.4 1.52-1.44 2.14.68.3.96.47 1.28.8.43.5.68 1.2.68 2 0 .82-.26 1.57-.7 2.16-.75.98-2.2 1.43-3.58 1.43-1.12 0-1.73-.33-1.73-.88 0-.32.3-.55.65-.55.26 0 .5.1.94.4.56.4.88.47 1.3.47 1.15 0 2-1.04 2-2.35 0-1.17-.53-1.93-1.6-2.24-.33-.1-.68-.14-1.56-.14v-.22c.58-.2.98-.37 1.3-.55.75-.44 1.24-1.13 1.24-2.07 0-1.05-.65-1.58-1.66-1.58-.96 0-1.67.5-2.3 1.64"/><path d="M99.98 170c5.52 0 10 4.48 10 10s-4.48 10-10 10h-30c-5.53 0-10-4.48-10-10s4.47-10 10-10z" stroke="#000" stroke-width="2" fill="#fff"/><use xlink:href="#m" transform="matrix(1,0,0,1,60.97757875125167,171) translate(6.5 14.4)"/><path d="M482 177.52c4.42 0 8 4.47 8 10 0 5.52-3.58 10-8 10h-24c-4.42 0-8-4.48-8-10 0-5.53 3.58-10 8-10z" stroke="#000" stroke-width="2" fill="#fff"/><use xlink:href="#n" transform="matrix(1,0,0,1,451,178.51535242530227) translate(5 14.4)"/><path d="M482 206.33c4.42 0 8 4.48 8 10s-3.58 10-8 10h-24c-4.42 0-8-4.48-8-10s3.58-10 8-10z" stroke="#000" stroke-width="2" fill="#fff"/><use xlink:href="#o" transform="matrix(1,0,0,1,451,207.33106127951606) translate(12.025 14.4)"/><path d="M451.1 264.74h39.2v40h-39.2z" stroke="#000" stroke-width="2" fill="#fff"/><path d="M461.5 277.92h18.9v17.76h-18.9z" fill="#fff" fill-opacity="0"/><path d="M469.4 287.78l.28.3c-1.1 1.3-2.47 2.36-4.32 2.36-2.1 0-2.98-1.7-2.98-3.38 0-3.05 2.63-6.47 5.73-6.47 1.1 0 2.12.58 2.12 1.65 0 .83-.35 1.52-1.18 1.52-.56 0-.82-.45-.82-.82 0-.53.63-.8.63-1.27 0-.26-.22-.45-.74-.45-2.58 0-3.83 3.9-3.83 5.64 0 1.9 1.07 2.37 2.05 2.37 1.33 0 2.33-.72 3.1-1.46M477.74 292l-.08.1c-.43.52-1.17 1.5-1.97 1.5-.5 0-.64-.35-.64-.7 0-.2.06-.45.1-.62l.9-3.4c.02-.13.1-.44.1-.65 0-.3-.1-.6-.38-.6-.58 0-1.55 1.34-2.03 2.06-.55.82-.95 1.55-1.05 1.87l-.5 1.9H471l1.47-5.75c0-.28-.04-.5-.46-.5-.14 0-.3.04-.42.05l-.03-.23 2.45-.35-.8 2.9h.06c.08 0 .83-1.08.86-1.12.62-.77 1.54-1.8 2.46-1.8.68 0 .87.46.87.96 0 .4-.1.77-.17 1.08l-.9 3.56c-.03.03-.03.08-.03.15.02.1.07.22.23.22.37 0 .74-.56.96-.82"/><path d="M343.2 165.02h25.5" stroke="#000" stroke-width="2" fill="none"/><path d="M343.23 166.02h-1.16l.13-1-.13-1h1.16zM369.7 166.02h-1.03v-2h1.02z"/><path d="M239.1 157.3h39.18v40h-39.2z" stroke="#000" stroke-width="2" fill="#fff"/><path d="M249.5 170.48h18.94v17.75H249.5z" fill="#fff" fill-opacity="0"/><path d="M257.4 180.34l.27.28c-1.1 1.3-2.46 2.37-4.32 2.37-2.1 0-2.98-1.7-2.98-3.38 0-3.05 2.64-6.47 5.73-6.47 1.1 0 2.1.58 2.1 1.65 0 .83-.34 1.53-1.16 1.53-.57 0-.83-.46-.83-.83 0-.52.64-.78.64-1.26 0-.27-.22-.46-.74-.46-2.6 0-3.84 3.9-3.84 5.64 0 1.9 1.07 2.37 2.05 2.37 1.34 0 2.34-.72 3.1-1.46M264.6 186.03h-4.24v-.23c1.14-.06 1.46-.38 1.46-1.23v-6.9c0-.54-.14-.77-.46-.77-.16 0-.42.08-.7.2l-.4.14v-.22l2.75-1.4.14.05v9.2c0 .66.3.93 1.47.93v.23"/><path d="M310.04 200.48h20.47v-23.45" stroke="#000" stroke-width="2" fill="none"/><path d="M310.06 201.48h-1.18l.16-1-.13-1h1.16zM330.5 176.03l1-.13v1.15h-2v-1.15z"/><path d="M280.28 177.3h17.75v11.17" stroke="#000" stroke-width="2" fill="none"/><path d="M280.3 178.3h-1.02v-2h1.02zM299.03 189.6l-1-.13-1 .13v-1.16h2z"/><path d="M280.56 223.1h17.47v-10.6" stroke="#000" stroke-width="2" fill="none"/><path d="M280.6 224.1h-1.04v-2h1.03zM299.03 212.5h-2v-1.17l1 .16 1-.17z"/><path d="M282.38 104.4h48.13V153" stroke="#000" stroke-width="2" fill="none"/><path d="M282.4 105.4h-1.15l.13-1-.13-1h1.16zM331.5 154.14l-1-.13-1 .14v-1.16h2z"/><path d="M207.05 104.9h31.38" stroke="#000" stroke-width="2" fill="none"/><path d="M207.08 105.9h-1.18l.16-1-.14-1h1.16zM239.36 104.4l.2 1.5h-1.16v-2h1.03z"/><path d="M172.4 71.18h21.82v21.8" stroke="#000" stroke-width="2" fill="none"/><path d="M172.43 72.18h-1.02v-2h1.03zM195.22 93.9l-.18-.02-1.82.24v-1.15h2z"/><path d="M57.97 180h-12" stroke="#000" stroke-width="2" fill="none"/><path d="M58.97 180l.16 1h-1.2v-2h1.17zM46 181H45v-2H46z"/><path d="M161.63 152.37c0 5.52-4.48 10-10 10-5.53 0-10-4.48-10-10s4.47-10 10-10c5.52 0 10 4.48 10 10z" stroke="#000" stroke-width="2" fill="#fff"/><use xlink:href="#i" transform="matrix(1,0,0,1,142.62737511707485,143.36858229157247) translate(3.9444444444444438 13.866666666666669)"/><path d="M121.2 128.5h30.43v11.86" stroke="#000" stroke-width="2" fill="none"/><path d="M121.2 129.5h-1v-2h1zM152.63 141.5l-1-.14-1 .13v-1.17h2z"/><path d="M112 180h39.63v-15.62" stroke="#000" stroke-width="2" fill="none"/><path d="M112.02 181h-1.2l.17-1-.17-1h1.2zM152.63 164.4h-2v-1.18l1 .16 1-.16z"/><path d="M163.64 152.37h31.4V116.9" stroke="#000" stroke-width="2" fill="none"/><path d="M163.66 153.37h-1.18l.16-1-.14-1h1.16zM196.04 116.93h-2v-1.2l1 .18 1-.16z"/><path d="M485 235.15c5.52 0 10 4.47 10 10 0 5.52-4.48 10-10 10h-30c-5.52 0-10-4.48-10-10 0-5.53 4.48-10 10-10z" stroke="#000" stroke-width="2" fill="#fff"/><g><use xlink:href="#m" transform="matrix(1,0,0,1,446,236.1467701337298) translate(6.5 14.4)"/></g><defs><path d="M67-125c0 53 21 87 73 88 37 1 54-22 65-47l45 17C233-25 199 4 140 4 58 4 20-42 15-125 8-235 124-281 211-232c18 10 29 29 36 50l-46 12c-8-25-30-41-62-41-52 0-71 34-72 86" id="p"/><path d="M110-194c64 0 96 36 96 99 0 64-35 99-97 99-61 0-95-36-95-99 0-62 34-99 96-99zm-1 164c35 0 45-28 45-65 0-40-10-65-43-65-34 0-45 26-45 65 0 36 10 65 43 65" id="q"/><path d="M135-194c87-1 58 113 63 194h-50c-7-57 23-157-34-157-59 0-34 97-39 157H25l-1-190h47c2 12-1 28 3 38 12-26 28-41 61-42" id="r"/><path d="M115-3C79 11 28 4 28-45v-112H4v-33h27l15-45h31v45h36v33H77v99c-1 23 16 31 38 25v30" id="s"/><path d="M135-150c-39-12-60 13-60 57V0H25l-1-190h47c2 13-1 29 3 40 6-28 27-53 61-41v41" id="t"/><path d="M25 0v-261h50V0H25" id="u"/><g id="a"><use transform="matrix(0.05,0,0,0.05,0,0)" xlink:href="#p"/><use transform="matrix(0.05,0,0,0.05,12.950000000000001,0)" xlink:href="#q"/><use transform="matrix(0.05,0,0,0.05,23.900000000000002,0)" xlink:href="#r"/><use transform="matrix(0.05,0,0,0.05,34.85,0)" xlink:href="#s"/><use transform="matrix(0.05,0,0,0.05,40.800000000000004,0)" xlink:href="#t"/><use transform="matrix(0.05,0,0,0.05,47.800000000000004,0)" xlink:href="#q"/><use transform="matrix(0.05,0,0,0.05,58.75,0)" xlink:href="#u"/></g><path d="M133-34C117-15 103 5 69 4 32 3 11-16 11-54c-1-60 55-63 116-61 1-26-3-47-28-47-18 1-26 9-28 27l-52-2c7-38 36-58 82-57s74 22 75 68l1 82c-1 14 12 18 25 15v27c-30 8-71 5-69-32zm-48 3c29 0 43-24 42-57-32 0-66-3-65 30 0 17 8 27 23 27" id="v"/><path d="M231 0h-52l-39-155L100 0H48L-1-190h46L77-45c9-52 24-97 36-145h53l37 145 32-145h46" id="w"/><path d="M35-132v-50h50v50H35zM35 0v-49h50V0H35" id="x"/><g id="b"><use transform="matrix(0.05,0,0,0.05,0,0)" xlink:href="#u"/><use transform="matrix(0.05,0,0,0.05,5,0)" xlink:href="#v"/><use transform="matrix(0.05,0,0,0.05,15,0)" xlink:href="#w"/><use transform="matrix(0.05,0,0,0.05,29,0)" xlink:href="#x"/></g><path d="M76-208v77h127v40H76V0H24v-248h183v40H76" id="y"/><path d="M85 4C-2 5 27-109 22-190h50c7 57-23 150 33 157 60-5 35-97 40-157h50l1 190h-47c-2-12 1-28-3-38-12 25-28 42-61 42" id="z"/><path d="M190-63c-7 42-38 67-86 67-59 0-84-38-90-98-12-110 154-137 174-36l-49 2c-2-19-15-32-35-32-30 0-35 28-38 64-6 74 65 87 74 30" id="A"/><path d="M25-224v-37h50v37H25zM25 0v-190h50V0H25" id="B"/><path d="M137-138c1-29-70-34-71-4 15 46 118 7 119 86 1 83-164 76-172 9l43-7c4 19 20 25 44 25 33 8 57-30 24-41C81-84 22-81 20-136c-2-80 154-74 161-7" id="C"/><g id="c"><use transform="matrix(0.05,0,0,0.05,0,0)" xlink:href="#y"/><use transform="matrix(0.05,0,0,0.05,10.950000000000001,0)" xlink:href="#z"/><use transform="matrix(0.05,0,0,0.05,21.900000000000002,0)" xlink:href="#r"/><use transform="matrix(0.05,0,0,0.05,32.85,0)" xlink:href="#A"/><use transform="matrix(0.05,0,0,0.05,42.85,0)" xlink:href="#s"/><use transform="matrix(0.05,0,0,0.05,48.800000000000004,0)" xlink:href="#B"/><use transform="matrix(0.05,0,0,0.05,53.800000000000004,0)" xlink:href="#q"/><use transform="matrix(0.05,0,0,0.05,64.75,0)" xlink:href="#r"/><use transform="matrix(0.05,0,0,0.05,75.7,0)" xlink:href="#C"/></g><path d="M135-143c-3-34-86-38-87 0 15 53 115 12 119 90S17 21 10-45l28-5c4 36 97 45 98 0-10-56-113-15-118-90-4-57 82-63 122-42 12 7 21 19 24 35" id="D"/><path d="M24-231v-30h32v30H24zM24 0v-190h32V0H24" id="E"/><path d="M117-194c89-4 53 116 60 194h-32v-121c0-31-8-49-39-48C34-167 62-67 57 0H25l-1-190h30c1 10-1 24 2 32 11-22 29-35 61-36" id="F"/><g id="d"><use transform="matrix(0.05,0,0,0.05,0,0)" xlink:href="#D"/><use transform="matrix(0.05,0,0,0.05,9,0)" xlink:href="#E"/><use transform="matrix(0.05,0,0,0.05,12.949999999999998,0)" xlink:href="#F"/></g><path d="M169-182c-1-43-94-46-97-3 18 66 151 10 154 114 3 95-165 93-204 36-6-8-10-19-12-30l50-8c3 46 112 56 116 5-17-69-150-10-154-114-4-87 153-88 188-35 5 8 8 18 10 28" id="G"/><path d="M185-48c-13 30-37 53-82 52C43 2 14-33 14-96s30-98 90-98c62 0 83 45 84 108H66c0 31 8 55 39 56 18 0 30-7 34-22zm-45-69c5-46-57-63-70-21-2 6-4 13-4 21h74" id="H"/><g id="e"><use transform="matrix(0.05,0,0,0.05,0,0)" xlink:href="#G"/><use transform="matrix(0.05,0,0,0.05,12,0)" xlink:href="#H"/><use transform="matrix(0.05,0,0,0.05,22,0)" xlink:href="#r"/><use transform="matrix(0.05,0,0,0.05,32.95,0)" xlink:href="#C"/><use transform="matrix(0.05,0,0,0.05,42.95,0)" xlink:href="#q"/><use transform="matrix(0.05,0,0,0.05,53.900000000000006,0)" xlink:href="#t"/><use transform="matrix(0.05,0,0,0.05,60.900000000000006,0)" xlink:href="#C"/></g><g id="f"><use transform="matrix(0.05,0,0,0.05,0,0)" xlink:href="#p"/><use transform="matrix(0.05,0,0,0.05,12.950000000000001,0)" xlink:href="#q"/><use transform="matrix(0.05,0,0,0.05,23.900000000000002,0)" xlink:href="#r"/><use transform="matrix(0.05,0,0,0.05,34.85,0)" xlink:href="#C"/><use transform="matrix(0.05,0,0,0.05,44.85,0)" xlink:href="#s"/><use transform="matrix(0.05,0,0,0.05,50.800000000000004,0)" xlink:href="#v"/><use transform="matrix(0.05,0,0,0.05,60.800000000000004,0)" xlink:href="#r"/><use transform="matrix(0.05,0,0,0.05,71.75,0)" xlink:href="#s"/><use transform="matrix(0.05,0,0,0.05,77.7,0)" xlink:href="#C"/></g><path d="M118-107v75H92v-75H18v-26h74v-75h26v75h74v26h-74" id="I"/><use transform="matrix(0.05,0,0,0.05,0,0)" xlink:href="#I" id="g"/><path d="M0-79v-24h200v24H0" id="J"/><use transform="matrix(0.048148148148148155,0,0,0.048148148148148155,0,0)" xlink:href="#J" id="h"/><path d="M25-58l62-62-62-62 19-18 61 62 62-62 18 19-61 61 61 62-17 18-63-62-62 62" id="K"/><use transform="matrix(0.048148148148148155,0,0,0.048148148148148155,0,0)" xlink:href="#K" id="i"/><path d="M84-168v-33h30v33H84zm-73 61v-26h175v26H11zm73 68v-32h30v32H84" id="L"/><use transform="matrix(0.048148148148148155,0,0,0.048148148148148155,0,0)" xlink:href="#L" id="j"/><path d="M277 0v-38h34V0h-34zM163 0v-38h34V0h-34zM49 0v-38h34V0H49" id="M"/><use transform="matrix(0.048148148148148155,0,0,0.048148148148148155,0,0)" xlink:href="#M" id="k"/><path d="M16-82v-28h88v28H16" id="N"/><use transform="matrix(0.05,0,0,0.05,0,0)" xlink:href="#N" id="l"/><path d="M59-47c-2 24 18 29 38 22v24C64 9 27 4 27-40v-127H5v-23h24l9-43h21v43h35v23H59v120" id="O"/><path d="M141-36C126-15 110 5 73 4 37 3 15-17 15-53c-1-64 63-63 125-63 3-35-9-54-41-54-24 1-41 7-42 31l-33-3c5-37 33-52 76-52 45 0 72 20 72 64v82c-1 20 7 32 28 27v20c-31 9-61-2-59-35zM48-53c0 20 12 33 32 33 41-3 63-29 60-74-43 2-92-5-92 41" id="P"/><path d="M106-169C34-169 62-67 57 0H25v-261h32l-1 103c12-21 28-36 61-36 89 0 53 116 60 194h-32v-121c2-32-8-49-39-48" id="Q"/><g id="m"><use transform="matrix(0.05,0,0,0.05,0,0)" xlink:href="#O"/><use transform="matrix(0.05,0,0,0.05,5,0)" xlink:href="#P"/><use transform="matrix(0.05,0,0,0.05,15,0)" xlink:href="#F"/><use transform="matrix(0.05,0,0,0.05,25,0)" xlink:href="#Q"/></g><path d="M96-169c-40 0-48 33-48 73s9 75 48 75c24 0 41-14 43-38l32 2c-6 37-31 61-74 61-59 0-76-41-82-99-10-93 101-131 147-64 4 7 5 14 7 22l-32 3c-4-21-16-35-41-35" id="R"/><path d="M100-194c62-1 85 37 85 99 1 63-27 99-86 99S16-35 15-95c0-66 28-99 85-99zM99-20c44 1 53-31 53-75 0-43-8-75-51-75s-53 32-53 75 10 74 51 75" id="S"/><g id="n"><use transform="matrix(0.05,0,0,0.05,0,0)" xlink:href="#R"/><use transform="matrix(0.05,0,0,0.05,9,0)" xlink:href="#S"/><use transform="matrix(0.05,0,0,0.05,19,0)" xlink:href="#D"/></g><path d="M24 0v-261h32V0H24" id="T"/><g id="o"><use transform="matrix(0.05,0,0,0.05,0,0)" xlink:href="#T"/><use transform="matrix(0.05,0,0,0.05,3.95,0)" xlink:href="#F"/></g></defs></g></svg>