<svg xmlns="http://www.w3.org/2000/svg" xmlns:xlink="http://www.w3.org/1999/xlink" xmlns:lucid="lucid" width="584" height="382.91"><g transform="translate(20 20)" lucid:page-tab-id="0_0"><path d="M0 0h544v352H0z" fill="#fff"/><path d="M0 48.35h544V259.4H0z" stroke="#a3d977" stroke-width="2" fill="#a3d977"/><path d="M31.84 0h220.6v40H31.84z" stroke="#000" stroke-opacity="0" stroke-width="2" fill="#fff" fill-opacity="0"/><use xlink:href="#a" transform="matrix(1,0,0,1,36.843443248856374,5) translate(53.65 18.15)"/><use xlink:href="#b" transform="matrix(1,0,0,1,36.843443248856374,5) translate(122.4 18.15)"/><path d="M212.68 8.4H520V30.2H212.68z" fill="#fff" fill-opacity="0"/><path d="M218.56 18.06l.6 5.1c1.34-1.8 2.1-3.1 2.58-4 .43-.8.6-1.23.6-1.63 0-.45-1.12-.67-1.12-1.5 0-.48.4-.87 1.02-.87.7 0 1.24.5 1.24 1.35 0 1.7-3.53 6.94-4.44 8.1-1.6 2-3 4.13-4.5 4.13-.8 0-1.2-.68-1.2-1.2 0-.65.58-.9.86-.9.94 0 .9.68 1.24.68.37 0 1.6-1.34 2.18-2.2l-.83-6.85c-.12-.98-.3-2.3-1.53-2.3-.24 0-.6.08-.8.1l-.03-.35 3.27-.54c.5.72.66 1.28.86 2.9M243.4 17.77H230.6v-1.44h12.83v1.44m0 4.36H230.6V20.7h12.83v1.43M259 15.14l-.5 3.18h-.34c0-1.4-.78-2.62-2-2.62-.55 0-1.1.37-1.1 1.27 0 1.2 2.9 3.2 2.9 5.27 0 1.35-1.04 2.72-2.94 2.72-.74 0-2.13-.43-2.4-.43-.2 0-.38.08-.65.45h-.37l.55-3.4h.35c0 1.38.9 2.84 2.26 2.84 1.3 0 1.6-1.1 1.6-1.94 0-1.8-2.84-2.88-2.84-5 0-1.73 1.3-2.34 2.48-2.34.94 0 1.38.43 2 .43.25 0 .5-.22.66-.43h.35M266.16 28.02h-4.25v-.23c1.15-.07 1.47-.4 1.47-1.24v-6.9c0-.54-.13-.77-.46-.77-.14 0-.4.07-.68.18l-.42.15V19l2.76-1.4.14.06v9.2c0 .66.3.93 1.46.93V28M279.27 19.23c0 .7-.6 1.3-1.3 1.3-.7 0-1.3-.64-1.3-1.3 0-.65.6-1.3 1.3-1.3.7 0 1.3.6 1.3 1.3M293.82 22.33l.26.28c-1.1 1.32-2.46 2.38-4.3 2.38-2.12 0-3-1.7-3-3.37 0-3.04 2.64-6.46 5.73-6.46 1.1 0 2.13.58 2.13 1.65 0 .82-.35 1.52-1.18 1.52-.57 0-.83-.46-.83-.83 0-.53.63-.8.63-1.27 0-.27-.2-.46-.74-.46-2.58 0-3.82 3.9-3.82 5.64 0 1.9 1.07 2.38 2.05 2.38 1.33 0 2.33-.7 3.1-1.45M301.02 28.02h-4.25v-.23c1.14-.07 1.46-.4 1.46-1.24v-6.9c0-.54-.13-.77-.46-.77-.15 0-.4.07-.7.18l-.4.15V19l2.75-1.4.14.06v9.2c0 .66.3.93 1.46.93V28M323.56 19.95h-5.7v5.7h-1.43v-5.7h-5.68V18.5h5.68v-5.67h1.44v5.68h5.7v1.45M332.88 18.2l2.26 1.36c1.4.85 1.92 1.44 1.92 2.68 0 1.46-1.4 2.72-3.05 2.72-.45 0-1.08-.02-1.58-.2-.52-.17-.76-.2-1-.2-.26 0-.4.05-.52.27h-.3V21.4h.36c.46 2.12 1.27 3.08 2.77 3.08 1.1 0 1.8-.72 1.8-1.6 0-.7-.43-1.25-1.15-1.64l-1.17-.66c-1.8-1-2.6-2.04-2.6-3.16 0-1.72 1.2-2.68 3-2.68.52 0 1 .03 1.46.24.24.1.46.18.6.18.1 0 .18-.02.36-.22h.24l.1 2.96h-.32c-.5-1.96-1.16-2.68-2.46-2.68-.94 0-1.64.46-1.64 1.5 0 .46.33 1.1.94 1.47M341.88 10.98c0 .63-.48 1.1-1.14 1.1-.6 0-1.1-.47-1.1-1.1 0-.6.5-1.1 1.12-1.1.64 0 1.12.5 1.12 1.1m1.6 13.76h-5.18v-.32c1.5-.1 1.72-.3 1.72-1.94v-4.95c0-1.02-.17-1.37-.7-1.37-.2 0-.54 0-.93.1v-.34l3.37-1.2.08.1v7.64c0 1.6.18 1.85 1.62 1.96v.32M354.6 24.74h-4.53l.02-.32c1.08-.1 1.34-.53 1.34-1.96v-4.34c0-1.55-.52-2.2-1.6-2.2-.7 0-1.23.26-2.23 1.24v6c0 .86.3 1.17 1.42 1.26v.32h-4.6v-.32c1.12-.1 1.36-.44 1.36-1.72v-5.3c0-1.07-.16-1.4-.77-1.4-.23 0-.47 0-.62.07v-.37c1.2-.35 1.92-.6 3-.98l.16.07v1.7h.02c1.13-1.3 2.14-1.78 3.14-1.78 1.65 0 2.57 1.2 2.57 3.36v4.8c0 1.2.26 1.43 1.33 1.54v.32M361.55 28.25l-.26.35c-3.46-1.96-5.33-5.64-5.33-9.35 0-4.03 1.9-7.16 5.38-9.23l.2.35c-3.03 2.6-3.7 4.6-3.7 8.82 0 4.04.65 6.5 3.7 9.05M370.7 15.14l-.53 3.18h-.32c0-1.4-.8-2.62-2-2.62-.55 0-1.12.37-1.12 1.27 0 1.2 2.92 3.2 2.92 5.27 0 1.35-1.05 2.72-2.94 2.72-.73 0-2.13-.43-2.4-.43-.18 0-.38.08-.64.45h-.37l.53-3.4h.35c0 1.38.9 2.84 2.27 2.84 1.28 0 1.6-1.1 1.6-1.94 0-1.8-2.84-2.88-2.84-5 0-1.73 1.3-2.34 2.5-2.34.93 0 1.36.43 2 .43.23 0 .47-.22.65-.43h.35M379.08 25.9l-.83 2.12h-6.02v-.18l2.74-2.9c1.45-1.54 2-2.7 2-4.02 0-1.4-.83-2.17-2.14-2.17-1.1 0-1.65.5-2.26 2l-.33-.07c.33-1.8 1.3-3.07 3.2-3.07 1.75 0 2.85 1.2 2.85 2.72 0 1.22-.6 2.38-1.98 3.82l-2.54 2.7h3.6c.65 0 .98-.16 1.48-1.02M400.04 19.95H387.9V18.5h12.14v1.45M414.2 22.33l.26.28c-1.1 1.32-2.46 2.38-4.3 2.38-2.13 0-3-1.7-3-3.37 0-3.04 2.64-6.46 5.73-6.46 1.08 0 2.1.58 2.1 1.65 0 .82-.34 1.52-1.17 1.52-.57 0-.83-.46-.83-.83 0-.53.63-.8.63-1.27 0-.27-.22-.46-.74-.46-2.6 0-3.84 3.9-3.84 5.64 0 1.9 1.06 2.38 2.04 2.38 1.33 0 2.34-.7 3.1-1.45M422.63 25.9l-.83 2.12h-6.02v-.18l2.74-2.9c1.45-1.54 2-2.7 2-4.02 0-1.4-.83-2.17-2.14-2.17-1.1 0-1.65.5-2.26 2l-.33-.07c.32-1.8 1.3-3.07 3.2-3.07 1.74 0 2.85 1.2 2.85 2.72 0 1.22-.6 2.38-1.98 3.82l-2.54 2.7h3.6c.65 0 .98-.16 1.5-1.02M434.5 19.23c0 .7-.6 1.3-1.28 1.3-.72 0-1.33-.64-1.33-1.3 0-.65.6-1.3 1.32-1.3.7 0 1.28.6 1.28 1.3M446.94 23.07l.28.24c-.72 1.14-1.54 1.66-2.63 1.66-1.28 0-1.93-.94-1.93-2.77v-6.56h-1.15c-.07-.05-.1-.1-.1-.15 0-.15.14-.28.38-.43.56-.33 1.28-1.13 2.1-2.33.14-.2.32-.4.45-.6.1 0 .15.06.15.27v2.54h2.2v.7h-2.2v6.23c0 1.4.33 1.96 1.13 1.96.48 0 .83-.2 1.3-.76M456.83 23.3v.62c-.65.82-1.22 1.04-1.96 1.04-.8 0-1.3-.43-1.4-1.6h-.02c-1.15 1.32-2.22 1.6-3.16 1.6-1.36 0-2.3-.83-2.3-2.26 0-1.14.68-2 1.53-2.55.66-.44 1.46-.85 3.92-1.77V17.2c0-1.34-.72-1.95-1.7-1.95-.87 0-1.52.47-1.52 1.06 0 .4.13.47.13.93 0 .4-.44.9-1 .9-.46 0-.94-.42-.94-1 0-.58.35-1.27 1.1-1.75.62-.4 1.54-.66 2.52-.66 1.22 0 2.04.35 2.57.98.53.63.62 1.1.62 2.42v4.16c0 1 .28 1.44.67 1.44.34 0 .56-.1.93-.4m-3.38-1.34V18.9c-1.35.48-2.24.94-2.8 1.44-.5.48-.73 1-.73 1.68 0 1.15.66 1.68 1.5 1.68.44 0 .9-.1 1.27-.35.62-.44.75-.74.75-1.37M467.46 24.74h-4.53l.02-.32c1.1-.1 1.35-.53 1.35-1.96v-4.34c0-1.55-.52-2.2-1.6-2.2-.7 0-1.23.26-2.23 1.24v6c0 .86.3 1.17 1.4 1.26v.32h-4.58v-.32c1.1-.1 1.34-.44 1.34-1.72v-5.3c0-1.07-.16-1.4-.77-1.4-.23 0-.47 0-.63.07v-.37c1.2-.35 1.92-.6 3-.98l.16.07v1.7h.02c1.14-1.3 2.14-1.78 3.14-1.78 1.66 0 2.57 1.2 2.57 3.36v4.8c0 1.2.26 1.43 1.33 1.54v.32M478.4 24.74h-4.62v-.32c1.26-.13 1.48-.4 1.48-1.9v-4.3c0-1.54-.55-2.32-1.6-2.32-.9 0-1.54.37-2.45 1.37v5.25c0 1.5.22 1.77 1.5 1.9v.32h-4.72v-.32c1.27-.18 1.4-.37 1.4-1.9V12.26c0-.94-.18-1.1-1.1-1.1H468v-.34l.6-.17c1.23-.37 1.74-.52 2.5-.78l.1.06v6.62c1-1.3 1.92-1.83 3.2-1.83 1.8 0 2.7 1.18 2.7 3.47v4.32c0 1.5.12 1.68 1.3 1.9v.32M485.32 28.25l-.26.35c-3.44-1.96-5.3-5.64-5.3-9.35 0-4.03 1.88-7.16 5.37-9.23l.2.35c-3.04 2.6-3.7 4.6-3.7 8.82 0 4.04.64 6.5 3.7 9.05M494.45 15.14l-.52 3.18h-.33c0-1.4-.78-2.62-2-2.62-.55 0-1.1.37-1.1 1.27 0 1.2 2.9 3.2 2.9 5.27 0 1.35-1.04 2.72-2.94 2.72-.74 0-2.13-.43-2.4-.43-.2 0-.4.08-.65.45h-.36l.55-3.4h.34c0 1.38.9 2.84 2.26 2.84 1.3 0 1.6-1.1 1.6-1.94 0-1.8-2.84-2.88-2.84-5 0-1.73 1.3-2.34 2.48-2.34.94 0 1.38.43 2 .43.25 0 .5-.22.66-.43h.35M496.47 20.17l-.24-.06c.44-1.46 1.4-2.5 3.02-2.5 1.43 0 2.4.86 2.4 2.12 0 .74-.4 1.5-1.43 2.13.67.3.95.48 1.27.8.43.5.67 1.2.67 2 0 .82-.26 1.57-.7 2.16-.75 1-2.2 1.44-3.58 1.44-1.13 0-1.73-.32-1.73-.88 0-.32.27-.55.63-.55.26 0 .5.1.94.4.57.4.9.5 1.32.5 1.14 0 2-1.06 2-2.37 0-1.17-.54-1.93-1.6-2.23-.34-.1-.7-.16-1.57-.16v-.2c.58-.2.98-.38 1.28-.57.76-.43 1.25-1.12 1.25-2.06 0-1.04-.65-1.56-1.66-1.56-.96 0-1.67.5-2.3 1.63M506.06 10.37l.26-.35c3.33 2 5.32 5.64 5.32 9.34 0 4.03-1.92 7.13-5.38 9.24l-.2-.35c3.1-2.55 3.7-4.6 3.7-8.82 0-4.08-.54-6.58-3.7-9.06M513.36 10.37l.26-.35c3.33 2 5.3 5.64 5.3 9.34 0 4.03-1.9 7.13-5.37 9.24l-.2-.35c3.1-2.55 3.7-4.6 3.7-8.82 0-4.08-.53-6.58-3.7-9.06"/><path d="M440 48.35h100v40H440z" stroke="#000" stroke-opacity="0" stroke-width="2" fill="#fff" fill-opacity="0"/><use xlink:href="#c" transform="matrix(1,0,0,1,445,53.34542887172597) translate(2.1499999999999986 18.15)"/><path d="M502 148.87c4.42 0 8 4.48 8 10s-3.58 10-8 10h-24c-4.42 0-8-4.48-8-10s3.58-10 8-10z" stroke="#000" stroke-width="2" fill="#fff"/><use xlink:href="#d" transform="matrix(1,0,0,1,471,149.86956712466463) translate(7.525 14.4)"/><path d="M4.8 310.9h530.4v32H4.8z" stroke="#000" stroke-opacity="0" stroke-width="2" fill="#fff" fill-opacity="0"/><use xlink:href="#e" transform="matrix(1,0,0,1,9.796578110428527,315.90721367185847) translate(81.20000000000002 15.775)"/><use xlink:href="#f" transform="matrix(1,0,0,1,9.796578110428527,315.90721367185847) translate(352.1 15.775)"/><path d="M520 96.2c0 5.5-4.48 10-10 10s-10-4.5-10-10c0-5.54 4.48-10 10-10s10 4.46 10 10z" stroke="#000" stroke-width="2" fill="#fff"/><use xlink:href="#g" transform="matrix(1,0,0,1,501,87.18763041197478) translate(3.75 14.4)"/><path d="M480 96.2c0 5.5-4.48 10-10 10s-10-4.5-10-10c0-5.54 4.48-10 10-10s10 4.46 10 10z" stroke="#000" stroke-width="2" fill="#fff"/><use xlink:href="#h" transform="matrix(1,0,0,1,461,87.18763041197478) translate(4.185185185185184 13.866666666666669)"/><path d="M520 130.05c0 5.53-4.48 10-10 10s-10-4.47-10-10c0-5.52 4.48-10 10-10s10 4.48 10 10z" stroke="#000" stroke-width="2" fill="#fff"/><use xlink:href="#i" transform="matrix(1,0,0,1,501,121.05385827045092) translate(3.9444444444444438 13.866666666666669)"/><path d="M480 128.87c0 5.52-4.48 10-10 10s-10-4.48-10-10 4.48-10 10-10 10 4.48 10 10z" stroke="#000" stroke-width="2" fill="#fff"/><use xlink:href="#j" transform="matrix(1,0,0,1,461,119.86956712466468) translate(4.257407407407407 13.866666666666669)"/><path d="M20 275.44h39.2v40H20z" stroke="#000" stroke-width="2" fill="#fff"/><path d="M30.4 288.62H48.8v13.63H30.4z" fill="#fff" fill-opacity="0"/><path d="M38.38 289l-.44 3.04h-.34c-.22-1.8-.88-2.52-1.94-2.52-.77 0-1.3.43-1.3 1.24 0 .6.34 1.22 1.2 2.22 1.08 1.26 1.47 2.1 1.47 2.96 0 1.8-1.33 2.92-3.14 2.92-.38 0-.7-.02-1.2-.22-.42-.17-.72-.2-.96-.2s-.48.12-.64.46h-.34l.43-3.46h.34c.3 2.07 1.05 2.96 2.18 2.96 1.02 0 1.65-.6 1.65-1.67 0-.7-.37-1.44-1.22-2.5-.93-1.2-1.37-2.17-1.37-2.86 0-1.44 1.03-2.36 2.64-2.36.37 0 .67.08 1.22.23.4.13.6.16.78.16.33 0 .48-.1.65-.4h.3M44.95 301.9H40.7v-.23c1.14-.06 1.46-.38 1.46-1.23v-6.92c0-.52-.14-.75-.46-.75-.16 0-.42.08-.7.18l-.4.16v-.2l2.75-1.4.13.04v9.2c0 .65.3.93 1.47.93v.23"/><path d="M125.93 280.04h27.33v30.8h-27.33z" fill="#fff"/><use xlink:href="#k" transform="matrix(1,0,0,1,130.92648955410647,285.03789798171556) translate(0 13.866666666666669)"/><path d="M80 275.44h39.2v40H80z" stroke="#000" stroke-width="2" fill="#fff"/><path d="M90.4 288.62h18.38v13.63H90.4z" fill="#fff" fill-opacity="0"/><path d="M98.38 289l-.44 3.04h-.34c-.22-1.8-.88-2.52-1.94-2.52-.77 0-1.3.43-1.3 1.24 0 .6.34 1.22 1.2 2.22 1.08 1.26 1.47 2.1 1.47 2.96 0 1.8-1.33 2.92-3.14 2.92-.38 0-.7-.02-1.2-.22-.42-.17-.72-.2-.96-.2s-.48.12-.64.46h-.34l.43-3.46h.34c.3 2.07 1.05 2.96 2.18 2.96 1.02 0 1.65-.6 1.65-1.67 0-.7-.37-1.44-1.22-2.5-.93-1.2-1.37-2.17-1.37-2.86 0-1.44 1.03-2.36 2.64-2.36.37 0 .67.08 1.22.23.4.13.6.16.78.16.33 0 .48-.1.65-.4h.3M106.18 299.8l-.83 2.1h-6.02v-.18l2.74-2.9c1.45-1.54 2-2.7 2-4.02 0-1.4-.83-2.17-2.14-2.17-1.1 0-1.65.5-2.27 2l-.32-.07c.32-1.8 1.3-3.07 3.2-3.07 1.75 0 2.85 1.18 2.85 2.7 0 1.22-.6 2.37-1.98 3.82l-2.54 2.7h3.6c.65 0 .98-.16 1.48-1.02"/><path d="M160 275.44h39.2v40H160z" stroke="#000" stroke-width="2" fill="#fff"/><path d="M170.4 288.62h18.38v13.77H170.4z" fill="#fff" fill-opacity="0"/><path d="M178.38 289l-.44 3.04h-.34c-.22-1.8-.88-2.52-1.94-2.52-.77 0-1.3.43-1.3 1.24 0 .6.34 1.22 1.2 2.22 1.08 1.26 1.47 2.1 1.47 2.96 0 1.8-1.33 2.92-3.14 2.92-.38 0-.7-.02-1.2-.22-.42-.17-.72-.2-.96-.2s-.48.12-.64.46h-.34l.43-3.46h.34c.3 2.07 1.05 2.96 2.18 2.96 1.02 0 1.65-.6 1.65-1.67 0-.7-.37-1.44-1.22-2.5-.93-1.2-1.37-2.17-1.37-2.86 0-1.44 1.03-2.36 2.64-2.36.37 0 .67.08 1.22.23.4.13.6.16.78.16.33 0 .48-.1.65-.4h.3M185.96 300.1l.22.2c-1.05 1.43-1.43 1.74-2.16 1.74-.38 0-.72-.25-.72-.83 0-.14.03-.34.25-1.15l.67-2.5c.13-.47.22-1.02.22-1.2 0-.3-.14-.45-.37-.45-.62 0-1.3.75-2.28 2.18-.7 1.03-.83 1.4-1.55 3.82h-1.16l1.47-5.4c.02-.07.03-.16.03-.25 0-.3-.2-.4-1-.42v-.24c1.25-.26 1.68-.32 2.5-.5l.06.04-1.03 3.36c1.54-2.47 2.57-3.4 3.56-3.4.65 0 1 .4 1 .95 0 .28-.07.6-.17.92l-.86 3.13c-.15.55-.22.82-.22.94 0 .14.07.28.25.28.22 0 .5-.25.94-.82l.32-.4"/><path d="M300 275.44h39.2v40H300z" stroke="#000" stroke-width="2" fill="#fff"/><path d="M310.4 288.62H330v13.6H310.4z" fill="#fff" fill-opacity="0"/><path d="M318.03 296.27l.35.22c-1.33 1.66-2.48 2.34-4.12 2.34-2.02 0-3.2-1.13-3.2-3.36 0-2.02 1.13-3.92 2.68-5.16 1.07-.85 2.3-1.33 3.64-1.33 1.33 0 2.28.73 2.28 1.76 0 .6-.47 1.04-1.04 1.04-.6 0-.85-.43-.85-.87 0-.4.33-.63.33-1.04 0-.28-.3-.45-.8-.45-.88 0-1.75.4-2.38 1.05-1.22 1.28-2 3.13-2 5.07 0 1.57.7 2.5 1.95 2.5 1.16 0 1.98-.56 3.16-1.8M326.15 301.88h-4.25v-.23c1.14-.06 1.46-.4 1.46-1.23v-6.92c0-.52-.14-.75-.46-.75-.15 0-.42.07-.7.18l-.4.16v-.23l2.75-1.4.14.04v9.2c0 .67.3.95 1.45.95v.23"/><path d="M360 275.44h39.2v40H360z" stroke="#000" stroke-width="2" fill="#fff"/><path d="M370.4 288.62H390v13.6H370.4z" fill="#fff" fill-opacity="0"/><path d="M378.03 296.27l.35.22c-1.33 1.66-2.48 2.34-4.12 2.34-2.02 0-3.2-1.13-3.2-3.36 0-2.02 1.13-3.92 2.68-5.16 1.07-.85 2.3-1.33 3.64-1.33 1.33 0 2.28.73 2.28 1.76 0 .6-.47 1.04-1.04 1.04-.6 0-.85-.43-.85-.87 0-.4.33-.63.33-1.04 0-.28-.3-.45-.8-.45-.88 0-1.75.4-2.38 1.05-1.22 1.28-2 3.13-2 5.07 0 1.57.7 2.5 1.95 2.5 1.16 0 1.98-.56 3.16-1.8M387.38 299.77l-.83 2.1h-6.02v-.17l2.74-2.92c1.45-1.52 2-2.7 2-4 0-1.4-.83-2.17-2.14-2.17-1.1 0-1.65.5-2.26 2l-.33-.07c.33-1.8 1.3-3.06 3.2-3.06 1.75 0 2.86 1.18 2.86 2.7 0 1.23-.6 2.38-1.98 3.83l-2.54 2.7h3.6c.65 0 .98-.16 1.5-1.02"/><path d="M413.22 280.1h27.33v30.8h-27.33z" fill="#fff"/><use xlink:href="#k" transform="matrix(1,0,0,1,418.2162552478465,285.1072136718585) translate(0 13.866666666666669)"/><path d="M389.98 145.37h39.18v40h-39.18z" stroke="#000" stroke-width="2" fill="#fff"/><path d="M404.12 160.07h10.82v17.76h-10.82z" fill="#fff" fill-opacity="0"/><path d="M410 165.66l.6 5.12c1.34-1.8 2.1-3.1 2.58-4 .44-.8.6-1.25.6-1.64 0-.46-1.12-.68-1.12-1.5 0-.48.4-.88 1.02-.88.7 0 1.24.5 1.24 1.36 0 1.7-3.52 6.92-4.44 8.08-1.6 2-3 4.14-4.5 4.14-.8 0-1.2-.68-1.2-1.2 0-.66.58-.9.86-.9.94 0 .9.68 1.25.68.36 0 1.6-1.35 2.16-2.22l-.82-6.84c-.1-.98-.3-2.3-1.53-2.3-.23 0-.58.08-.77.1l-.05-.35 3.27-.54c.5.72.65 1.3.85 2.9"/><path d="M131.22 51.18h39.2v40h-39.2z" stroke="#000" stroke-width="2" fill="#fff"/><path d="M141.63 64.37h19.48v17.76h-19.47z" fill="#fff" fill-opacity="0"/><path d="M150.12 67.04l-.52 3.18h-.33c0-1.4-.78-2.6-2-2.6-.55 0-1.1.36-1.1 1.25 0 1.2 2.9 3.2 2.9 5.27 0 1.35-1.04 2.72-2.93 2.72-.74 0-2.14-.43-2.4-.43-.2 0-.4.1-.65.46h-.38l.54-3.4h.35c0 1.36.9 2.82 2.28 2.82 1.28 0 1.6-1.1 1.6-1.94 0-1.8-2.85-2.88-2.85-5 0-1.73 1.3-2.34 2.5-2.34.92 0 1.36.43 2 .43.23 0 .47-.2.64-.43h.35M158.5 77.82l-.82 2.1h-6.03v-.18l2.74-2.9c1.44-1.53 2-2.7 2-4 0-1.42-.83-2.2-2.14-2.2-1.1 0-1.65.5-2.27 2.02l-.33-.08c.32-1.8 1.3-3.06 3.2-3.06 1.74 0 2.85 1.18 2.85 2.7 0 1.22-.6 2.38-1.97 3.83l-2.54 2.7h3.6c.66 0 .98-.16 1.5-1.03"/><path d="M343.85 165.37c0 5.52-4.78 10-10.68 10-5.9 0-10.67-4.48-10.67-10 0-5.53 4.78-10 10.67-10 5.9 0 10.68 4.47 10.68 10z" stroke="#000" stroke-width="2" fill="#fff"/><use xlink:href="#g" transform="matrix(1,0,0,1,323.49601066975686,156.36612125785882) translate(4.75 14.4)"/><path d="M310.7 200.82c0 5.53-4.5 10-10 10-5.53 0-10-4.47-10-10 0-5.52 4.47-10 10-10 5.5 0 10 4.48 10 10z" stroke="#000" stroke-width="2" fill="#fff"/><use xlink:href="#i" transform="matrix(1,0,0,1,291.68995780344767,191.8238734597721) translate(3.9444444444444438 13.866666666666669)"/><path d="M272.37 94.4c4.42 0 8 4.5 8 10 0 5.53-3.58 10-8 10h-24c-4.42 0-8-4.47-8-10 0-5.5 3.58-10 8-10z" stroke="#000" stroke-width="2" fill="#fff"/><use xlink:href="#d" transform="matrix(1,0,0,1,241.37262488309284,95.41193672993154) translate(7.525 14.4)"/><path d="M242.04 204.46h39.18v38h-39.18z" stroke="#000" stroke-width="2" fill="#fff"/><path d="M252.44 216.64h18.38v13.63h-18.38z" fill="#fff" fill-opacity="0"/><path d="M260.42 217l-.44 3.06h-.35c-.22-1.8-.87-2.53-1.94-2.53-.77 0-1.3.44-1.3 1.24 0 .6.33 1.22 1.18 2.23 1.1 1.26 1.48 2.1 1.48 2.96 0 1.8-1.32 2.92-3.13 2.92-.37 0-.7-.02-1.2-.22-.4-.17-.72-.2-.96-.2s-.48.1-.63.46h-.35l.43-3.46h.35c.3 2.07 1.04 2.96 2.17 2.96 1.03 0 1.66-.6 1.66-1.68 0-.7-.36-1.43-1.2-2.5-.95-1.18-1.38-2.16-1.38-2.86 0-1.43 1.02-2.35 2.63-2.35.37 0 .68.07 1.22.22.42.13.6.15.8.15.3 0 .47-.08.64-.4h.32M266.98 229.92h-4.25v-.23c1.14-.07 1.47-.4 1.47-1.24v-6.92c0-.52-.14-.75-.47-.75-.15 0-.4.06-.7.17l-.4.15v-.2l2.75-1.4.14.03v9.2c0 .66.3.94 1.46.94v.22"/><path d="M80 108.5h39.2v40H80z" stroke="#000" stroke-width="2" fill="#fff"/><path d="M90.4 121.7H110v13.6H90.4z" fill="#fff" fill-opacity="0"/><path d="M98.03 129.33l.35.22c-1.33 1.68-2.48 2.35-4.12 2.35-2.02 0-3.2-1.13-3.2-3.35 0-2.03 1.13-3.92 2.68-5.16 1.07-.86 2.3-1.34 3.64-1.34 1.33 0 2.28.74 2.28 1.76 0 .6-.47 1.05-1.04 1.05-.6 0-.85-.44-.85-.87 0-.4.33-.64.33-1.05 0-.26-.3-.44-.8-.44-.88 0-1.75.4-2.38 1.06-1.22 1.3-2 3.14-2 5.08 0 1.56.7 2.48 1.95 2.48 1.16 0 1.98-.54 3.16-1.8M107.38 132.83l-.83 2.12h-6.02v-.2l2.74-2.9c1.45-1.53 2-2.7 2-4 0-1.4-.83-2.18-2.14-2.18-1.1 0-1.65.5-2.26 2l-.33-.07c.33-1.8 1.3-3.07 3.2-3.07 1.75 0 2.86 1.2 2.86 2.7 0 1.23-.6 2.4-1.98 3.83l-2.54 2.7h3.6c.65 0 .98-.15 1.5-1.02"/><path d="M205.04 104.9c0 5.52-4.47 10-10 10-5.52 0-10-4.48-10-10 0-5.53 4.48-10 10-10 5.53 0 10 4.47 10 10z" stroke="#000" stroke-width="2" fill="#fff"/><use xlink:href="#l" transform="matrix(1,0,0,1,186.04455712491608,95.89272054446572) translate(6.025 14.4)"/><path d="M4.8 160h39.18v40H4.8z" stroke="#000" stroke-width="2" fill="#fff"/><path d="M15.2 173.18h19.5v17.76H15.2z" fill="#fff" fill-opacity="0"/><path d="M23.7 175.85l-.52 3.2h-.33c0-1.4-.78-2.63-2-2.63-.55 0-1.12.37-1.12 1.26 0 1.2 2.92 3.2 2.92 5.28 0 1.35-1.04 2.72-2.94 2.72-.73 0-2.12-.44-2.38-.44-.2 0-.4.1-.66.46h-.37l.54-3.4h.35c0 1.38.88 2.83 2.25 2.83 1.3 0 1.6-1.08 1.6-1.93 0-1.8-2.84-2.88-2.84-5 0-1.74 1.3-2.35 2.5-2.35.93 0 1.37.44 2 .44.24 0 .48-.23.65-.45h.35M25.72 180.9l-.24-.07c.44-1.47 1.4-2.5 3-2.5 1.45 0 2.42.85 2.42 2.1 0 .75-.4 1.52-1.44 2.14.68.3.96.47 1.28.8.43.5.68 1.2.68 2 0 .82-.26 1.57-.7 2.16-.75.98-2.2 1.43-3.58 1.43-1.12 0-1.73-.33-1.73-.88 0-.32.3-.55.65-.55.26 0 .5.1.94.4.56.4.88.47 1.3.47 1.15 0 2-1.04 2-2.35 0-1.17-.53-1.93-1.6-2.24-.33-.1-.68-.14-1.56-.14v-.22c.58-.2.98-.37 1.3-.55.75-.44 1.24-1.13 1.24-2.07 0-1.05-.65-1.58-1.66-1.58-.96 0-1.67.5-2.3 1.64"/><path d="M114.6 170c5.52 0 10 4.48 10 10s-4.48 10-10 10h-30c-5.53 0-10-4.48-10-10s4.47-10 10-10z" stroke="#000" stroke-width="2" fill="#fff"/><use xlink:href="#m" transform="matrix(1,0,0,1,75.59315622077315,171) translate(6.5 14.4)"/><path d="M502 177.7c4.42 0 8 4.46 8 10 0 5.5-3.58 10-8 10h-24c-4.42 0-8-4.5-8-10 0-5.54 3.58-10 8-10z" stroke="#000" stroke-width="2" fill="#fff"/><use xlink:href="#n" transform="matrix(1,0,0,1,471,178.6852759788785) translate(5 14.4)"/><path d="M502 206.5c4.42 0 8 4.48 8 10s-3.58 10-8 10h-24c-4.42 0-8-4.48-8-10s3.58-10 8-10z" stroke="#000" stroke-width="2" fill="#fff"/><use xlink:href="#o" transform="matrix(1,0,0,1,471,207.5009848330923) translate(12.025 14.4)"/><path d="M450.8 275.5H490v40h-39.2z" stroke="#000" stroke-width="2" fill="#fff"/><path d="M461.22 288.7h18.9v17.75h-18.9z" fill="#fff" fill-opacity="0"/><path d="M469.13 298.55l.26.28c-1.12 1.3-2.47 2.38-4.32 2.38-2.12 0-3-1.7-3-3.37 0-3.05 2.65-6.47 5.74-6.47 1.1 0 2.1.6 2.1 1.66 0 .83-.33 1.52-1.16 1.52-.57 0-.83-.45-.83-.83 0-.5.63-.77.63-1.25 0-.26-.22-.46-.74-.46-2.6 0-3.83 3.9-3.83 5.64 0 1.9 1.05 2.37 2.03 2.37 1.33 0 2.34-.7 3.1-1.45M477.45 302.77l-.07.1c-.43.52-1.17 1.5-1.97 1.5-.5 0-.63-.35-.63-.7 0-.2.07-.45.1-.62l.9-3.4c.02-.13.1-.44.1-.65 0-.3-.1-.6-.37-.6-.6 0-1.56 1.34-2.04 2.06-.55.83-.95 1.56-1.04 1.88l-.5 1.9h-1.2l1.47-5.75c0-.3-.06-.5-.48-.5-.15 0-.32.03-.43.04l-.04-.23 2.45-.34-.77 2.9h.04c.08 0 .83-1.07.86-1.12.62-.77 1.54-1.78 2.47-1.78.68 0 .86.44.86.95 0 .4-.1.78-.17 1.1l-.92 3.55v.15c0 .1.05.22.22.22.37 0 .74-.56.95-.82"/><path d="M345.86 165.37h42.12" stroke="#000" stroke-width="2" fill="none"/><path d="M345.9 166.37h-1.17l.13-1-.13-1h1.16zM388.98 166.37h-1.03v-2h1.03z"/><path d="M241.75 157.64h39.2v40h-39.2z" stroke="#000" stroke-width="2" fill="#fff"/><path d="M252.16 170.82h18.94v17.76h-18.94z" fill="#fff" fill-opacity="0"/><path d="M260.07 180.68l.26.3c-1.1 1.3-2.46 2.36-4.3 2.36-2.13 0-3-1.7-3-3.38 0-3.05 2.64-6.47 5.73-6.47 1.1 0 2.1.58 2.1 1.65 0 .83-.34 1.53-1.16 1.53-.57 0-.83-.46-.83-.83 0-.53.63-.8.63-1.27 0-.26-.22-.45-.74-.45-2.6 0-3.83 3.9-3.83 5.64 0 1.9 1.06 2.37 2.04 2.37 1.33 0 2.33-.72 3.1-1.46M267.27 186.38h-4.25v-.23c1.14-.06 1.46-.38 1.46-1.23V178c0-.52-.14-.75-.46-.75-.16 0-.42.08-.7.18l-.4.16v-.23l2.75-1.4.13.05v9.2c0 .65.3.93 1.47.93v.23"/><path d="M312.7 200.83h20.47v-23.46" stroke="#000" stroke-width="2" fill="none"/><path d="M312.72 201.83h-1.18l.16-1-.13-1h1.15zM333.17 176.37l1-.13v1.16h-2v-1.16z"/><path d="M282.94 177.64h17.75v11.18" stroke="#000" stroke-width="2" fill="none"/><path d="M282.96 178.64h-1.02v-2h1.02zM301.7 189.95l-1-.13-1 .13v-1.16h2z"/><path d="M283.22 223.46h17.47v-10.62" stroke="#000" stroke-width="2" fill="none"/><path d="M283.25 224.46h-1.03v-2h1.03zM301.7 212.86h-2v-1.18l1 .16 1-.16z"/><path d="M282.38 104.4h50.8v48.96" stroke="#000" stroke-width="2" fill="none"/><path d="M282.4 105.4h-1.15l.13-1-.13-1h1.16zM334.17 154.5l-1-.14-1 .13v-1.17h2z"/><path d="M207.05 104.9h31.38" stroke="#000" stroke-width="2" fill="none"/><path d="M207.08 105.9h-1.18l.16-1-.14-1h1.16zM239.36 104.4l.2 1.5h-1.16v-2h1.03z"/><path d="M172.4 71.18h21.82v21.8" stroke="#000" stroke-width="2" fill="none"/><path d="M172.43 72.18h-1.02v-2h1.03zM195.22 93.9l-.18-.02-1.82.24v-1.15h2z"/><path d="M72.58 180h-26.6" stroke="#000" stroke-width="2" fill="none"/><path d="M73.58 180l.16 1h-1.18v-2h1.16zM46 181H45v-2H46z"/><path d="M161.63 152.37c0 5.52-4.48 10-10 10-5.53 0-10-4.48-10-10s4.47-10 10-10c5.52 0 10 4.48 10 10z" stroke="#000" stroke-width="2" fill="#fff"/><use xlink:href="#i" transform="matrix(1,0,0,1,142.62737511707485,143.36858229157247) translate(3.9444444444444438 13.866666666666669)"/><path d="M121.2 128.5h30.43v11.86" stroke="#000" stroke-width="2" fill="none"/><path d="M121.2 129.5h-1v-2h1zM152.63 141.5l-1-.14-1 .13v-1.17h2z"/><path d="M126.6 180h25.03v-15.62" stroke="#000" stroke-width="2" fill="none"/><path d="M126.63 181h-1.2l.18-1-.16-1h1.2zM152.63 164.4h-2v-1.18l1 .16 1-.16z"/><path d="M163.64 152.37h31.4V116.9" stroke="#000" stroke-width="2" fill="none"/><path d="M163.66 153.37h-1.18l.16-1-.14-1h1.16zM196.04 116.93h-2v-1.2l1 .18 1-.16z"/><path d="M505 235.32c5.52 0 10 4.47 10 10 0 5.52-4.48 10-10 10h-30c-5.52 0-10-4.48-10-10 0-5.53 4.48-10 10-10z" stroke="#000" stroke-width="2" fill="#fff"/><g><use xlink:href="#m" transform="matrix(1,0,0,1,466,236.31669368730604) translate(6.5 14.4)"/></g><defs><path d="M67-125c0 53 21 87 73 88 37 1 54-22 65-47l45 17C233-25 199 4 140 4 58 4 20-42 15-125 8-235 124-281 211-232c18 10 29 29 36 50l-46 12c-8-25-30-41-62-41-52 0-71 34-72 86" id="p"/><path d="M110-194c64 0 96 36 96 99 0 64-35 99-97 99-61 0-95-36-95-99 0-62 34-99 96-99zm-1 164c35 0 45-28 45-65 0-40-10-65-43-65-34 0-45 26-45 65 0 36 10 65 43 65" id="q"/><path d="M135-194c87-1 58 113 63 194h-50c-7-57 23-157-34-157-59 0-34 97-39 157H25l-1-190h47c2 12-1 28 3 38 12-26 28-41 61-42" id="r"/><path d="M115-3C79 11 28 4 28-45v-112H4v-33h27l15-45h31v45h36v33H77v99c-1 23 16 31 38 25v30" id="s"/><path d="M135-150c-39-12-60 13-60 57V0H25l-1-190h47c2 13-1 29 3 40 6-28 27-53 61-41v41" id="t"/><path d="M25 0v-261h50V0H25" id="u"/><g id="a"><use transform="matrix(0.05,0,0,0.05,0,0)" xlink:href="#p"/><use transform="matrix(0.05,0,0,0.05,12.950000000000001,0)" xlink:href="#q"/><use transform="matrix(0.05,0,0,0.05,23.900000000000002,0)" xlink:href="#r"/><use transform="matrix(0.05,0,0,0.05,34.85,0)" xlink:href="#s"/><use transform="matrix(0.05,0,0,0.05,40.800000000000004,0)" xlink:href="#t"/><use transform="matrix(0.05,0,0,0.05,47.800000000000004,0)" xlink:href="#q"/><use transform="matrix(0.05,0,0,0.05,58.75,0)" xlink:href="#u"/></g><path d="M133-34C117-15 103 5 69 4 32 3 11-16 11-54c-1-60 55-63 116-61 1-26-3-47-28-47-18 1-26 9-28 27l-52-2c7-38 36-58 82-57s74 22 75 68l1 82c-1 14 12 18 25 15v27c-30 8-71 5-69-32zm-48 3c29 0 43-24 42-57-32 0-66-3-65 30 0 17 8 27 23 27" id="v"/><path d="M231 0h-52l-39-155L100 0H48L-1-190h46L77-45c9-52 24-97 36-145h53l37 145 32-145h46" id="w"/><path d="M35-132v-50h50v50H35zM35 0v-49h50V0H35" id="x"/><g id="b"><use transform="matrix(0.05,0,0,0.05,0,0)" xlink:href="#u"/><use transform="matrix(0.05,0,0,0.05,5,0)" xlink:href="#v"/><use transform="matrix(0.05,0,0,0.05,15,0)" xlink:href="#w"/><use transform="matrix(0.05,0,0,0.05,29,0)" xlink:href="#x"/></g><path d="M76-208v77h127v40H76V0H24v-248h183v40H76" id="y"/><path d="M85 4C-2 5 27-109 22-190h50c7 57-23 150 33 157 60-5 35-97 40-157h50l1 190h-47c-2-12 1-28-3-38-12 25-28 42-61 42" id="z"/><path d="M190-63c-7 42-38 67-86 67-59 0-84-38-90-98-12-110 154-137 174-36l-49 2c-2-19-15-32-35-32-30 0-35 28-38 64-6 74 65 87 74 30" id="A"/><path d="M25-224v-37h50v37H25zM25 0v-190h50V0H25" id="B"/><path d="M137-138c1-29-70-34-71-4 15 46 118 7 119 86 1 83-164 76-172 9l43-7c4 19 20 25 44 25 33 8 57-30 24-41C81-84 22-81 20-136c-2-80 154-74 161-7" id="C"/><g id="c"><use transform="matrix(0.05,0,0,0.05,0,0)" xlink:href="#y"/><use transform="matrix(0.05,0,0,0.05,10.950000000000001,0)" xlink:href="#z"/><use transform="matrix(0.05,0,0,0.05,21.900000000000002,0)" xlink:href="#r"/><use transform="matrix(0.05,0,0,0.05,32.85,0)" xlink:href="#A"/><use transform="matrix(0.05,0,0,0.05,42.85,0)" xlink:href="#s"/><use transform="matrix(0.05,0,0,0.05,48.800000000000004,0)" xlink:href="#B"/><use transform="matrix(0.05,0,0,0.05,53.800000000000004,0)" xlink:href="#q"/><use transform="matrix(0.05,0,0,0.05,64.75,0)" xlink:href="#r"/><use transform="matrix(0.05,0,0,0.05,75.7,0)" xlink:href="#C"/></g><path d="M135-143c-3-34-86-38-87 0 15 53 115 12 119 90S17 21 10-45l28-5c4 36 97 45 98 0-10-56-113-15-118-90-4-57 82-63 122-42 12 7 21 19 24 35" id="D"/><path d="M24-231v-30h32v30H24zM24 0v-190h32V0H24" id="E"/><path d="M117-194c89-4 53 116 60 194h-32v-121c0-31-8-49-39-48C34-167 62-67 57 0H25l-1-190h30c1 10-1 24 2 32 11-22 29-35 61-36" id="F"/><g id="d"><use transform="matrix(0.05,0,0,0.05,0,0)" xlink:href="#D"/><use transform="matrix(0.05,0,0,0.05,9,0)" xlink:href="#E"/><use transform="matrix(0.05,0,0,0.05,12.949999999999998,0)" xlink:href="#F"/></g><path d="M169-182c-1-43-94-46-97-3 18 66 151 10 154 114 3 95-165 93-204 36-6-8-10-19-12-30l50-8c3 46 112 56 116 5-17-69-150-10-154-114-4-87 153-88 188-35 5 8 8 18 10 28" id="G"/><path d="M185-48c-13 30-37 53-82 52C43 2 14-33 14-96s30-98 90-98c62 0 83 45 84 108H66c0 31 8 55 39 56 18 0 30-7 34-22zm-45-69c5-46-57-63-70-21-2 6-4 13-4 21h74" id="H"/><g id="e"><use transform="matrix(0.05,0,0,0.05,0,0)" xlink:href="#G"/><use transform="matrix(0.05,0,0,0.05,12,0)" xlink:href="#H"/><use transform="matrix(0.05,0,0,0.05,22,0)" xlink:href="#r"/><use transform="matrix(0.05,0,0,0.05,32.95,0)" xlink:href="#C"/><use transform="matrix(0.05,0,0,0.05,42.95,0)" xlink:href="#q"/><use transform="matrix(0.05,0,0,0.05,53.900000000000006,0)" xlink:href="#t"/><use transform="matrix(0.05,0,0,0.05,60.900000000000006,0)" xlink:href="#C"/></g><g id="f"><use transform="matrix(0.05,0,0,0.05,0,0)" xlink:href="#p"/><use transform="matrix(0.05,0,0,0.05,12.950000000000001,0)" xlink:href="#q"/><use transform="matrix(0.05,0,0,0.05,23.900000000000002,0)" xlink:href="#r"/><use transform="matrix(0.05,0,0,0.05,34.85,0)" xlink:href="#C"/><use transform="matrix(0.05,0,0,0.05,44.85,0)" xlink:href="#s"/><use transform="matrix(0.05,0,0,0.05,50.800000000000004,0)" xlink:href="#v"/><use transform="matrix(0.05,0,0,0.05,60.800000000000004,0)" xlink:href="#r"/><use transform="matrix(0.05,0,0,0.05,71.75,0)" xlink:href="#s"/><use transform="matrix(0.05,0,0,0.05,77.7,0)" xlink:href="#C"/></g><path d="M118-107v75H92v-75H18v-26h74v-75h26v75h74v26h-74" id="I"/><use transform="matrix(0.05,0,0,0.05,0,0)" xlink:href="#I" id="g"/><path d="M0-79v-24h200v24H0" id="J"/><use transform="matrix(0.048148148148148155,0,0,0.048148148148148155,0,0)" xlink:href="#J" id="h"/><path d="M25-58l62-62-62-62 19-18 61 62 62-62 18 19-61 61 61 62-17 18-63-62-62 62" id="K"/><use transform="matrix(0.048148148148148155,0,0,0.048148148148148155,0,0)" xlink:href="#K" id="i"/><path d="M84-168v-33h30v33H84zm-73 61v-26h175v26H11zm73 68v-32h30v32H84" id="L"/><use transform="matrix(0.048148148148148155,0,0,0.048148148148148155,0,0)" xlink:href="#L" id="j"/><path d="M277 0v-38h34V0h-34zM163 0v-38h34V0h-34zM49 0v-38h34V0H49" id="M"/><use transform="matrix(0.048148148148148155,0,0,0.048148148148148155,0,0)" xlink:href="#M" id="k"/><path d="M16-82v-28h88v28H16" id="N"/><use transform="matrix(0.05,0,0,0.05,0,0)" xlink:href="#N" id="l"/><path d="M59-47c-2 24 18 29 38 22v24C64 9 27 4 27-40v-127H5v-23h24l9-43h21v43h35v23H59v120" id="O"/><path d="M141-36C126-15 110 5 73 4 37 3 15-17 15-53c-1-64 63-63 125-63 3-35-9-54-41-54-24 1-41 7-42 31l-33-3c5-37 33-52 76-52 45 0 72 20 72 64v82c-1 20 7 32 28 27v20c-31 9-61-2-59-35zM48-53c0 20 12 33 32 33 41-3 63-29 60-74-43 2-92-5-92 41" id="P"/><path d="M106-169C34-169 62-67 57 0H25v-261h32l-1 103c12-21 28-36 61-36 89 0 53 116 60 194h-32v-121c2-32-8-49-39-48" id="Q"/><g id="m"><use transform="matrix(0.05,0,0,0.05,0,0)" xlink:href="#O"/><use transform="matrix(0.05,0,0,0.05,5,0)" xlink:href="#P"/><use transform="matrix(0.05,0,0,0.05,15,0)" xlink:href="#F"/><use transform="matrix(0.05,0,0,0.05,25,0)" xlink:href="#Q"/></g><path d="M96-169c-40 0-48 33-48 73s9 75 48 75c24 0 41-14 43-38l32 2c-6 37-31 61-74 61-59 0-76-41-82-99-10-93 101-131 147-64 4 7 5 14 7 22l-32 3c-4-21-16-35-41-35" id="R"/><path d="M100-194c62-1 85 37 85 99 1 63-27 99-86 99S16-35 15-95c0-66 28-99 85-99zM99-20c44 1 53-31 53-75 0-43-8-75-51-75s-53 32-53 75 10 74 51 75" id="S"/><g id="n"><use transform="matrix(0.05,0,0,0.05,0,0)" xlink:href="#R"/><use transform="matrix(0.05,0,0,0.05,9,0)" xlink:href="#S"/><use transform="matrix(0.05,0,0,0.05,19,0)" xlink:href="#D"/></g><path d="M24 0v-261h32V0H24" id="T"/><g id="o"><use transform="matrix(0.05,0,0,0.05,0,0)" xlink:href="#T"/><use transform="matrix(0.05,0,0,0.05,3.95,0)" xlink:href="#F"/></g></defs></g></svg>